<svg xmlns="http://www.w3.org/2000/svg" viewBox="0 0 1000 1000"><path d="M959.1 364L651 338 531.1 53C526 40.6 513.6 32.1 500 32.1c-13.6 0-26 7.9-31.1 20.9L349 338 40.9 364c-13.6 1.1-25.4 10.2-29.4 23.2s0 27.1 10.2 36.2l233.5 201.8L185.1 926c-2.8 13.6 2.3 27.1 13 35.1 11.3 7.9 26 8.5 37.3 1.7l264.6-160 264.6 160c5.7 3.4 11.3 5.1 17.5 5.1 6.8 0 14.1-2.3 19.8-6.2 11.3-7.9 16.4-22 13-35.1l-70.1-300.8L978.3 424c10.2-9 14.1-23.2 10.2-36.2-4-13.6-15.8-22.6-29.4-23.8zM684.9 587.9c-9.6 8.5-13.6 20.9-10.7 33.4l56.5 242.5-213.2-128.9c-5.7-3.4-11.3-5.1-17.5-5.1-6.2 0-12.4 1.7-17.5 5.1L269.3 863.8l56.5-242.5c2.8-12.4-1.1-24.9-10.7-33.4L126.8 425.1 375 404.2c12.4-1.1 23.7-9 28.3-20.4L500 153.7l96.7 229.5c5.1 11.9 15.8 19.8 28.3 20.4l248.2 20.9-188.3 163.4z"/></svg>